<?xml version="1.0" encoding="UTF-8"?><svg id="Layer_1" xmlns="http://www.w3.org/2000/svg" xmlns:xlink="http://www.w3.org/1999/xlink" viewBox="0 0 192 192"><defs><linearGradient id="linear-gradient" x1="-255.5" y1="138.59" x2="-251.21" y2="138.59" gradientTransform="translate(11442.35 3262.46) scale(44.78 -22.85)" gradientUnits="userSpaceOnUse"><stop offset="0" stop-color="#20ffa3"/><stop offset="1" stop-color="#0000fd"/></linearGradient></defs><path id="Path_305" d="m185.77,69.31c-4.02-6.96-9.91-12.66-17-16.45-7.62-3.98-16.12-5.98-24.72-5.83-8.63-.15-17.15,1.85-24.81,5.83-7.13,3.76-13.06,9.46-17.09,16.45-3.92,6.99-6.04,14.85-6.15,22.86-.11-8.01-2.22-15.87-6.15-22.86-4.03-6.98-9.96-12.68-17.09-16.45-7.66-3.97-16.18-5.97-24.81-5.83-8.6-.16-17.1,1.85-24.72,5.83-7.09,3.79-12.98,9.48-17,16.45C1.92,77.03-.22,85.76.02,94.6v2.82c-.23,8.86,1.92,17.62,6.21,25.38,3.98,6.99,9.88,12.69,17,16.43,7.64,3.93,16.13,5.9,24.72,5.74,8.62.16,17.14-1.81,24.81-5.74,7.16-3.72,13.1-9.42,17.09-16.43,3.92-7.02,6.03-14.91,6.15-22.95.12,8.04,2.23,15.92,6.15,22.95,4,7.01,9.93,12.72,17.09,16.43,7.67,3.92,16.19,5.89,24.81,5.74,8.59.16,17.08-1.81,24.72-5.74,7.12-3.74,13.02-9.44,17-16.43,4.29-7.76,6.43-16.52,6.21-25.38v-2.82c.24-8.84-1.91-17.57-6.21-25.29Zm-13.16,27.54c.49,8.31-2.39,16.47-7.98,22.64-11.62,10.92-29.73,10.92-41.35,0-1.9-1.95-3.48-4.18-4.68-6.62-3.86-8.15-11.94-13.47-20.95-13.8-.56,0-1.11-.03-1.66,0s-1.1,0-1.66,0c-9.01.33-17.09,5.65-20.95,13.8-1.2,2.44-2.78,4.67-4.68,6.62-11.62,10.92-29.73,10.92-41.35,0-5.6-6.17-8.47-14.32-7.98-22.64v-1.68c-.49-8.32,2.39-16.48,7.98-22.65,11.67-10.9,29.78-10.9,41.45,0,1.93,1.99,3.52,4.28,4.72,6.78,3.8,8.32,12.03,13.72,21.17,13.88h2.64c9.14-.16,17.38-5.56,21.17-13.88,1.2-2.5,2.79-4.79,4.72-6.78,11.67-10.9,29.78-10.9,41.45,0,5.6,6.17,8.47,14.34,7.98,22.65l-.03,1.68Z" style="fill:url(#linear-gradient); stroke-width:0px;"/></svg>