<svg xmlns="http://www.w3.org/2000/svg" width="12.3" height="13.667" viewBox="0 0 12.3 13.667">
  <path id="tarih_seç_icon" data-name="tarih seç icon" d="M1420.586,66.15h-6.834v1.367h6.834Zm1.366-4.783h-.683V60H1419.9v1.367h-5.466V60h-1.367v1.367h-.683a1.359,1.359,0,0,0-1.36,1.361v.005l-.007,9.567a1.367,1.367,0,0,0,1.367,1.367h9.566a1.371,1.371,0,0,0,1.367-1.367V62.733A1.37,1.37,0,0,0,1421.952,61.367Zm0,10.933h-9.566V64.783h9.566Zm-3.416-3.417h-4.784V70.25h4.784Z" transform="translate(-1411.019 -60)" fill="#4c4c4c"/>
</svg>
