<svg xmlns="http://www.w3.org/2000/svg" width="36.849" height="36.849" viewBox="0 0 36.849 36.849">
  <g id="filtre_icon" data-name="filtre icon" transform="translate(-1508 -48.076)">
    <path id="Path_306" data-name="Path 306" d="M18.425,0A18.425,18.425,0,1,1,0,18.425,18.425,18.425,0,0,1,18.425,0Z" transform="translate(1508 48.076)" fill="#0000fe"/>
    <path id="Path_92" data-name="Path 92" d="M1526.653,59.58a3.449,3.449,0,0,0-6.742.006c-1.959,0-5.013,0-6.653.006v1.375c1.633-.006,4.677-.006,6.638-.006a3.447,3.447,0,0,0,6.774-.006c4.034.007,9.614.02,12.921.046V59.626C1536.275,59.6,1530.687,59.587,1526.653,59.58Zm-3.37,2.811a2.077,2.077,0,1,1,2.077-2.077A2.079,2.079,0,0,1,1523.283,62.391Z" fill="#fff"/>
    <path id="Path_93" data-name="Path 93" d="M1534.25,65.788a3.449,3.449,0,0,0-6.747-.017c-4.44-.006-10.486,0-14.245.007v1.375c3.754-.012,9.792-.012,14.23-.007a3.447,3.447,0,0,0,6.771.017l1.251,0c1.417,0,3.075.01,4.081.018V65.81c-1.01-.007-2.664-.013-4.076-.017Zm-3.376,2.789a2.077,2.077,0,1,1,2.077-2.077A2.079,2.079,0,0,1,1530.874,68.577Z" fill="#fff"/>
    <path id="Path_94" data-name="Path 94" d="M1523.283,69.234a3.457,3.457,0,0,0-3.372,2.724c-1.959,0-5.013,0-6.653.006v1.375c1.633,0,4.677-.006,6.638-.006a3.447,3.447,0,0,0,6.774,0c4.035.007,9.615.02,12.921.045V72c-3.316-.025-8.9-.038-12.938-.045A3.456,3.456,0,0,0,1523.283,69.234Zm0,5.529a2.077,2.077,0,1,1,2.077-2.076A2.078,2.078,0,0,1,1523.283,74.763Z" fill="#fff"/>
  </g>
</svg>
