<svg xmlns="http://www.w3.org/2000/svg" width="16" height="16" viewBox="0 0 16 16">
  <path id="hepsi_icon" data-name="hepsi icon" d="M669.828,59a8,8,0,1,0,.008,0Zm5.544,4.8h-2.36a12.593,12.593,0,0,0-1.1-2.848A6.425,6.425,0,0,1,675.372,63.8Zm-5.536-3.168a11.3,11.3,0,0,1,1.528,3.168h-3.056A11.272,11.272,0,0,1,669.836,60.632ZM663.644,68.6a6.244,6.244,0,0,1,0-3.2h2.7a11.485,11.485,0,0,0,0,3.2Zm.656,1.6h2.36a12.5,12.5,0,0,0,1.1,2.848A6.387,6.387,0,0,1,664.3,70.2Zm2.36-6.4H664.3a6.387,6.387,0,0,1,3.464-2.848A12.5,12.5,0,0,0,666.66,63.8Zm3.176,9.568a11.272,11.272,0,0,1-1.528-3.168h3.056A11.3,11.3,0,0,1,669.836,73.368Zm1.872-4.768h-3.744a11.739,11.739,0,0,1-.128-1.6,11.426,11.426,0,0,1,.128-1.6h3.744a11.739,11.739,0,0,1,.128,1.6A11.907,11.907,0,0,1,671.708,68.6Zm.2,4.448a12.593,12.593,0,0,0,1.1-2.848h2.36A6.425,6.425,0,0,1,671.908,73.048Zm1.416-4.448a11.485,11.485,0,0,0,0-3.2h2.7a6.266,6.266,0,0,1,0,3.2Z" transform="translate(-661.836 -59)" fill="#4c4c4c"/>
</svg>
