<svg xmlns="http://www.w3.org/2000/svg" width="10.477" height="10.477" viewBox="0 0 10.477 10.477">
  <path id="tatiller_icon" data-name="tatiller icon" d="M1297.889,612.728l.833-.832,3.75,3.75-.832.831Zm2.5-3.335,1.665-1.665a5.891,5.891,0,0,0-8.324-.012A6.5,6.5,0,0,1,1300.388,609.393Zm-6.676-1.659a5.891,5.891,0,0,0,.011,8.324l1.665-1.665A6.5,6.5,0,0,1,1293.712,607.734Zm.011-.012-.005.006a7.544,7.544,0,0,0,2.5,5.833l3.336-3.336A7.537,7.537,0,0,0,1293.723,607.722Z" transform="translate(-1291.995 -606)" fill="#20ffa3"/>
</svg>
