<svg xmlns="http://www.w3.org/2000/svg" width="36.849" height="36.849" viewBox="0 0 36.849 36.849">
  <g id="bildirim_icon" data-name="bildirim icon" transform="translate(-1564.075 -48.076)">
    <circle id="Ellipse_11" data-name="Ellipse 11" cx="18.425" cy="18.425" r="18.425" transform="translate(1564.075 48.076)" fill="#f0f1f2"/>
    <path id="Path_95" data-name="Path 95" d="M1589.475,71.055l-1.624-2.437V65.479a5.218,5.218,0,0,0-4.373-5.146V59.006a.978.978,0,0,0-1.956,0v1.372a5.222,5.222,0,0,0-4.114,5.1v2.75l-1.884,2.826a.743.743,0,0,0,.619,1.155h12.714A.742.742,0,0,0,1589.475,71.055Z" fill="#4c4c4c"/>
    <path id="Path_96" data-name="Path 96" d="M1582.531,74.972a1.878,1.878,0,0,0,1.87-1.749h-3.741A1.878,1.878,0,0,0,1582.531,74.972Z" fill="#4c4c4c"/>
  </g>
</svg>
