<svg xmlns="http://www.w3.org/2000/svg" width="22" height="27.197" viewBox="0 0 22 27.197">
  <g id="pdf_icon" data-name="pdf icon" transform="translate(-431 -199.513)">
    <path id="Path_145" data-name="Path 145" d="M453,204.857v16.969a1.162,1.162,0,0,1-1.162,1.162H435.884a1.162,1.162,0,0,1-1.162-1.162V200.675a1.162,1.162,0,0,1,1.162-1.162h11.807Z" fill="#d9d9db"/>
    <path id="Path_146" data-name="Path 146" d="M453,204.857h-4.169a1.139,1.139,0,0,1-1.14-1.14v-4.2Z" fill="#c1c1c1"/>
    <path id="Path_147" data-name="Path 147" d="M449.278,208.579v16.968a1.163,1.163,0,0,1-1.162,1.163H432.162A1.163,1.163,0,0,1,431,225.547V204.4a1.163,1.163,0,0,1,1.162-1.163h11.807Z" fill="#fff"/>
    <path id="Path_148" data-name="Path 148" d="M449.278,208.579H445.11a1.141,1.141,0,0,1-1.141-1.141v-4.2Z" fill="#e5e5e5"/>
    <rect id="Rectangle_62" data-name="Rectangle 62" width="12.382" height="0.994" rx="0.497" transform="translate(433.948 213.491)" fill="#ececec"/>
    <rect id="Rectangle_63" data-name="Rectangle 63" width="12.382" height="0.994" rx="0.497" transform="translate(433.948 216.598)" fill="#ececec"/>
    <rect id="Rectangle_64" data-name="Rectangle 64" width="12.382" height="0.994" rx="0.497" transform="translate(433.948 219.705)" fill="#ececec"/>
  </g>
</svg>
