<svg xmlns="http://www.w3.org/2000/svg" width="16.503" height="16.498" viewBox="0 0 16.503 16.498">
  <path id="ayarlar_icon" data-name="ayarlar icon" d="M439.732,2817.487h2.384a.646.646,0,0,1,.367.59c.029.39.094.777.137,1.167a.172.172,0,0,0,.135.165q.678.267,1.349.558a.178.178,0,0,0,.215-.023c.334-.27.672-.534,1.011-.8a.488.488,0,0,1,.691.02l.016.017q.72.716,1.435,1.435a.489.489,0,0,1,.058.689l-.015.017c-.264.339-.528.678-.8,1.012a.179.179,0,0,0-.026.214q.293.676.565,1.363a.163.163,0,0,0,.154.126c.422.046.842.1,1.263.151a.5.5,0,0,1,.5.5.484.484,0,0,1,0,.053v1.981a.506.506,0,0,1-.447.559l-.059,0c-.421.048-.841.106-1.263.151-.092.01-.12.052-.151.13-.181.452-.365.9-.559,1.349a.186.186,0,0,0,.027.227c.266.33.527.664.788,1a.491.491,0,0,1-.014.694l-.027.024q-.709.714-1.423,1.425a.49.49,0,0,1-.691.064l-.027-.024c-.339-.264-.678-.528-1.013-.8a.166.166,0,0,0-.2-.023q-.678.291-1.364.564c-.079.032-.12.06-.13.152-.045.421-.1.841-.15,1.262a.5.5,0,0,1-.493.507.3.3,0,0,1-.053,0h-2a.5.5,0,0,1-.547-.447.464.464,0,0,1,0-.053c-.047-.416-.1-.831-.147-1.247a.186.186,0,0,0-.145-.176q-.672-.261-1.334-.55a.188.188,0,0,0-.228.022c-.33.267-.665.527-1,.788a.493.493,0,0,1-.7-.007.411.411,0,0,1-.034-.039q-.707-.7-1.41-1.414a.492.492,0,0,1-.069-.692l.023-.026c.263-.339.527-.679.8-1.013a.176.176,0,0,0,.019-.214q-.288-.671-.558-1.349a.173.173,0,0,0-.166-.134c-.39-.042-.777-.108-1.167-.137a.644.644,0,0,1-.589-.368v-2.385a.648.648,0,0,1,.59-.365c.39-.028.777-.094,1.166-.137a.173.173,0,0,0,.166-.135q.267-.678.557-1.348a.187.187,0,0,0-.029-.227c-.266-.33-.526-.665-.786-1a.49.49,0,0,1,.013-.693l.028-.025q.709-.714,1.423-1.423a.489.489,0,0,1,.688-.066l.029.025c.335.261.669.521,1,.787a.186.186,0,0,0,.227.027q.67-.289,1.349-.557a.173.173,0,0,0,.133-.166c.043-.389.108-.776.138-1.166A.64.64,0,0,1,439.732,2817.487Zm-2.932,8.272a4.125,4.125,0,1,0,4.1-4.146h-.01A4.134,4.134,0,0,0,436.8,2825.759Z" transform="translate(-432.671 -2817.487)" fill="#fff"/>
</svg>
