<svg xmlns="http://www.w3.org/2000/svg" width="20.22" height="12.332" viewBox="0 0 20.22 12.332">
  <path id="personeller_icon" data-name="personeller icon" d="M444.6,2069.075a2.752,2.752,0,1,0-.023,0Zm-7.352,0a2.753,2.753,0,1,0-.024,0Zm0,1.706c-2.142,0-6.434,1-6.434,2.988v2.133h12.867v-2.133c0-1.994-4.292-2.994-6.433-2.994Zm7.352,0c-.266,0-.569.018-.891.043a3.563,3.563,0,0,1,1.811,2.945v2.133h5.514v-2.133c0-1.994-4.292-2.994-6.434-2.994Z" transform="translate(-430.814 -2063.57)" fill="#fff"/>
</svg>
