<svg xmlns="http://www.w3.org/2000/svg" width="15.848" height="15.848" viewBox="0 0 15.848 15.848">
  <path id="kullan覺c覺lar_icon" data-name="kullan覺c覺lar icon" d="M442,2277.812a7.924,7.924,0,1,0,7.924,7.924,7.924,7.924,0,0,0-7.924-7.924Zm0,2.377a2.378,2.378,0,1,1-2.377,2.379v0a2.377,2.377,0,0,1,2.374-2.38h0Zm0,11.252a5.709,5.709,0,0,1-4.755-2.551c.024-1.577,3.17-2.441,4.755-2.441s4.731.864,4.755,2.441a5.709,5.709,0,0,1-4.755,2.551Z" transform="translate(-434.074 -2277.812)" fill="#fff"/>
</svg>
