<svg xmlns="http://www.w3.org/2000/svg" xmlns:xlink="http://www.w3.org/1999/xlink" width="755.099" height="385.168" viewBox="0 0 755.099 385.168">
  <defs>
    <linearGradient id="linear-gradient" y1="0.5" x2="1" y2="0.5" gradientUnits="objectBoundingBox">
      <stop offset="0" stop-color="#20ffa3"/>
      <stop offset="1" stop-color="#0000fd"/>
    </linearGradient>
  </defs>
  <path id="amblem" d="M901.686,489.18a169.266,169.266,0,0,0-66.886-64.7q-42.507-22.853-97.244-22.912-54.711,0-97.591,22.912a168.28,168.28,0,0,0-67.233,64.7q-22.336,38.35-24.182,89.915-1.817-51.595-24.181-89.915a168.3,168.3,0,0,0-67.235-64.7q-42.935-22.853-97.589-22.912-54.711,0-97.244,22.912a169.271,169.271,0,0,0-66.888,64.7Q171,530.991,171,588.617V599.7q0,57.655,24.413,99.841,24.412,42.073,66.888,64.638,42.5,22.595,97.244,22.565,54.709,0,97.589-22.565a164.79,164.79,0,0,0,67.235-64.638q22.333-38.608,24.181-90.262,1.82,51.595,24.182,90.262a164.774,164.774,0,0,0,67.233,64.638q42.935,22.595,97.591,22.565,54.709,0,97.244-22.565,42.5-22.508,66.886-64.638Q926.1,657.379,926.1,599.7v-11.08Q926.1,530.962,901.686,489.18ZM849.92,597.5q0,56.962-31.4,89.048-31.424,32.2-80.968,32.2-50.3,0-81.663-32.2a101.627,101.627,0,0,1-18.41-26.028c-15.755-31.914-46.8-53.441-82.411-54.305-2.194-.059-4.387-.117-6.522-.059-2.135-.057-4.328,0-6.521.059-35.608.865-66.658,22.391-82.413,54.305a101.628,101.628,0,0,1-18.41,26.028q-31.424,32.2-81.662,32.2-49.516,0-80.97-32.2-31.424-32.117-31.4-89.048v-6.637q0-56.96,31.4-89.106,31.424-32.117,80.97-32.146,50.988,0,82.066,32.146a101.467,101.467,0,0,1,18.467,26.663c15.583,32.549,47.208,54.479,83.277,54.594,1.733,0,3.463,0,5.194-.057,1.731.057,3.463.057,5.194.057,36.07-.115,67.7-22.046,83.277-54.594a101.475,101.475,0,0,1,18.469-26.663q31.076-32.117,82.066-32.146,49.516,0,80.968,32.146,31.426,32.117,31.4,89.106Z" transform="translate(-171 -401.573)" opacity="0.1" fill="url(#linear-gradient)"/>
</svg>
