<?xml version="1.0" encoding="UTF-8"?>
<svg id="Layer_1" data-name="Layer 1" xmlns="http://www.w3.org/2000/svg" xmlns:xlink="http://www.w3.org/1999/xlink" viewBox="0 0 44.78 22.85">
  <defs>
    <style>
      .cls-1 {
        fill: url(#linear-gradient);
        stroke-width: 0px;
      }
    </style>
    <linearGradient id="linear-gradient" x1="-855.46" y1="532.57" x2="-854.46" y2="532.57" gradientTransform="translate(38311.31 12179.06) scale(44.78 -22.85)" gradientUnits="userSpaceOnUse">
      <stop offset="0" stop-color="#20ffa3"/>
      <stop offset="1" stop-color="#0000fd"/>
    </linearGradient>
  </defs>
  <path id="Path_305" data-name="Path 305" class="cls-1" d="m43.33,5.2c-.94-1.62-2.31-2.95-3.97-3.84C37.58.43,35.6-.04,33.6,0c-2.01-.03-4,.43-5.79,1.36-1.66.88-3.05,2.21-3.99,3.84-.92,1.63-1.41,3.46-1.43,5.33-.03-1.87-.52-3.7-1.43-5.33-.94-1.63-2.32-2.96-3.99-3.84C15.18.43,13.19-.03,11.18,0c-2.01-.04-3.99.43-5.77,1.36-1.65.88-3.03,2.21-3.97,3.84C.44,7-.06,9.04,0,11.1v.66c-.05,2.07.45,4.11,1.45,5.92.93,1.63,2.31,2.96,3.97,3.83,1.78.92,3.76,1.38,5.77,1.34,2.01.04,4-.42,5.79-1.34,1.67-.87,3.05-2.2,3.99-3.83.91-1.64,1.41-3.48,1.43-5.35.03,1.88.52,3.71,1.43,5.35.93,1.63,2.32,2.97,3.99,3.83,1.79.91,3.78,1.37,5.79,1.34,2,.04,3.98-.42,5.77-1.34,1.66-.87,3.04-2.2,3.97-3.83,1-1.81,1.5-3.85,1.45-5.92v-.66c.06-2.06-.44-4.1-1.45-5.9Zm-3.07,6.42c.11,1.94-.56,3.84-1.86,5.28-2.71,2.55-6.93,2.55-9.64,0-.44-.45-.81-.97-1.09-1.54-.9-1.9-2.78-3.14-4.89-3.22-.13,0-.26,0-.39,0s-.26,0-.39,0c-2.1.08-3.99,1.32-4.89,3.22-.28.57-.65,1.09-1.09,1.54-2.71,2.55-6.93,2.55-9.64,0-1.31-1.44-1.98-3.34-1.86-5.28v-.39c-.11-1.94.56-3.84,1.86-5.28,2.72-2.54,6.95-2.54,9.67,0,.45.46.82,1,1.1,1.58.89,1.94,2.81,3.2,4.94,3.24h.62c2.13-.04,4.05-1.3,4.94-3.24.28-.58.65-1.12,1.1-1.58,2.72-2.54,6.95-2.54,9.67,0,1.31,1.44,1.98,3.34,1.86,5.28v.39Z"/>
</svg>