<?xml version="1.0" encoding="UTF-8"?>
<svg id="Layer_1" data-name="Layer 1" xmlns="http://www.w3.org/2000/svg" viewBox="0 0 115.13 29.51">
  <defs>
    <style>
      .cls-1 {
        fill: #fff;
        stroke-width: 0px;
      }
    </style>
  </defs>
  <path id="Path_300" data-name="Path 300" class="cls-1" d="m4.52,22.96v-13.31H0v-2.85h4.52v-3.54C4.41,1.57,5.68.12,7.36,0c.14,0,.28,0,.41,0h4.16v2.85h-3.08c-.47-.06-.9.27-.95.74-.01.08,0,.16,0,.24v2.95h4.66v2.85h-4.66v13.31h-3.38Z"/>
  <rect id="Rectangle_206" data-name="Rectangle 206" class="cls-1" x="15.92" y="0" width="3.38" height="22.95"/>
  <path id="Path_301" data-name="Path 301" class="cls-1" d="m26.14,29.51v-2.95h9.02c.61,0,.92-.33.92-.98v-4.98h-.52c-.22.47-.53.9-.9,1.26-.47.44-1.02.78-1.62,1-.82.29-1.69.42-2.56.39-1.15.02-2.28-.26-3.28-.82-.96-.54-1.75-1.35-2.26-2.33-.57-1.1-.85-2.33-.82-3.57V6.79h3.38v9.48c-.1,1.13.28,2.26,1.05,3.1.8.7,1.85,1.06,2.92,1,1.26.05,2.47-.45,3.33-1.38.91-1.13,1.36-2.55,1.26-4V6.79h3.38v19.47c.04.87-.27,1.72-.87,2.36-.64.61-1.5.93-2.38.89h-10.04Z"/>
  <path id="Path_302" data-name="Path 302" class="cls-1" d="m51.4,23.41c-1.46.02-2.91-.32-4.21-.98-1.25-.65-2.28-1.64-2.98-2.85-.76-1.37-1.14-2.92-1.1-4.49v-.43c-.05-1.56.33-3.11,1.1-4.48.71-1.21,1.74-2.2,2.98-2.85,1.3-.68,2.75-1.02,4.21-1,1.37-.04,2.73.25,3.97.85,1.05.53,1.95,1.31,2.64,2.26.66.93,1.11,1.99,1.3,3.11l-3.28.69c-.1-.69-.33-1.36-.69-1.97-.35-.59-.86-1.08-1.47-1.41-.74-.37-1.56-.55-2.39-.52-.89-.01-1.76.21-2.54.64-.76.43-1.38,1.07-1.79,1.84-.46.9-.69,1.89-.66,2.9v.3c-.03,1.01.2,2.02.66,2.92.4.77,1.02,1.41,1.79,1.84.78.42,1.65.64,2.54.62,1.19.08,2.36-.31,3.25-1.1.76-.76,1.25-1.74,1.41-2.8l3.28.75c-.26,1.11-.73,2.16-1.39,3.08-.68.95-1.59,1.72-2.64,2.25-1.24.59-2.6.87-3.97.83Z"/>
  <path id="Path_303" data-name="Path 303" class="cls-1" d="m107.45,23.41c-1.5.03-2.98-.32-4.3-1.03-1.21-.68-2.21-1.69-2.87-2.92-.71-1.35-1.07-2.85-1.03-4.38v-.4c-.04-1.53.31-3.05,1.02-4.41.65-1.22,1.63-2.24,2.84-2.92,1.29-.71,2.74-1.06,4.21-1.03,1.43-.03,2.84.33,4.08,1.03,1.16.68,2.11,1.68,2.74,2.87.68,1.33,1.02,2.8.98,4.3v1.28h-12.43c-.02,1.28.5,2.51,1.43,3.39.92.85,2.14,1.3,3.39,1.26,1.03.08,2.05-.23,2.87-.85.63-.55,1.14-1.22,1.49-1.97l2.79,1.44c-.36.7-.81,1.35-1.33,1.93-.63.72-1.41,1.3-2.28,1.7-1.13.5-2.37.74-3.61.7Zm-4.72-10.2h8.95c-.03-1.1-.5-2.13-1.31-2.87-.86-.72-1.96-1.08-3.08-1.03-1.13-.05-2.23.32-3.1,1.03-.83.74-1.35,1.77-1.46,2.87h0Z"/>
  <path id="Path_304" data-name="Path 304" class="cls-1" d="m92.43,0v7.87c-.26-.18-.53-.35-.81-.51-1.33-.69-2.8-1.04-4.3-1.01-1.5-.03-2.99.32-4.32,1.01-1.24.65-2.27,1.65-2.97,2.86-.68,1.22-1.05,2.58-1.07,3.98-.02-1.39-.39-2.76-1.07-3.98-.7-1.22-1.73-2.21-2.97-2.86-1.33-.69-2.82-1.04-4.32-1.01-1.5-.03-2.97.32-4.3,1.01-1.23.66-2.26,1.65-2.96,2.86-.75,1.34-1.12,2.86-1.08,4.4v.49c-.04,1.54.33,3.07,1.08,4.42.69,1.22,1.72,2.21,2.96,2.86,1.33.68,2.81,1.03,4.3,1,1.5.03,2.98-.32,4.32-1,1.25-.65,2.28-1.64,2.97-2.86.68-1.22,1.05-2.59,1.07-3.99.02,1.4.39,2.77,1.07,3.99.7,1.22,1.73,2.21,2.97,2.86,1.34.68,2.82,1.03,4.32,1,1.49.03,2.97-.32,4.3-1,.28-.15.55-.32.81-.5v1.06h3.38V0h-3.38Zm-.14,15.02c.09,1.45-.42,2.87-1.39,3.94-2.02,1.9-5.18,1.9-7.2,0-.33-.34-.6-.73-.81-1.15-.67-1.42-2.08-2.34-3.65-2.4-.1,0-.19,0-.29,0s-.19,0-.29,0c-1.57.06-2.97.98-3.65,2.4-.21.42-.48.81-.81,1.15-2.02,1.9-5.18,1.9-7.2,0-.97-1.07-1.47-2.49-1.39-3.94v-.29c-.08-1.45.42-2.87,1.39-3.94,2.03-1.9,5.18-1.9,7.21,0,.33.35.61.75.82,1.18.66,1.45,2.09,2.39,3.68,2.42h.46c1.59-.03,3.02-.97,3.68-2.42.21-.43.48-.83.82-1.18,2.03-1.9,5.18-1.9,7.21,0,.97,1.07,1.47,2.49,1.39,3.94v.29Z"/>
</svg>