<svg xmlns="http://www.w3.org/2000/svg" xmlns:xlink="http://www.w3.org/1999/xlink" width="168.177" height="29.506" viewBox="0 0 168.177 29.506">
  <defs>
    <linearGradient id="linear-gradient" y1="0.5" x2="1" y2="0.5" gradientUnits="objectBoundingBox">
      <stop offset="0" stop-color="#20ffa3"/>
      <stop offset="1" stop-color="#0000fd"/>
    </linearGradient>
  </defs>
  <g id="logo" transform="translate(-171 -401.572)">
    <path id="Path_300" data-name="Path 300" d="M673.314,424.522v-13.31H668.79v-2.852h4.524v-3.541a3.046,3.046,0,0,1,3.246-3.246h4.164v2.852h-3.082a.855.855,0,0,0-.951.983v2.951h4.655v2.852h-4.655v13.31Z" transform="translate(-444.738)" fill="#fff"/>
    <rect id="Rectangle_206" data-name="Rectangle 206" width="3.377" height="22.949" transform="translate(239.967 401.572)" fill="#fff"/>
    <path id="Path_301" data-name="Path 301" d="M897.049,487.969v-2.951h9.016q.918,0,.918-.983v-4.983h-.524a4.29,4.29,0,0,1-.9,1.262,4.616,4.616,0,0,1-1.623,1,7.147,7.147,0,0,1-2.557.393,6.52,6.52,0,0,1-3.278-.82,5.792,5.792,0,0,1-2.262-2.328,7.373,7.373,0,0,1-.82-3.573v-9.737h3.377v9.475a4.1,4.1,0,0,0,1.049,3.1,4.056,4.056,0,0,0,2.918,1,4.3,4.3,0,0,0,3.328-1.377,5.722,5.722,0,0,0,1.262-4v-8.2h3.377v19.474a3.226,3.226,0,0,1-.869,2.361,3.179,3.179,0,0,1-2.377.885Z" transform="translate(-646.854 -56.891)" fill="#fff"/>
    <path id="Path_302" data-name="Path 302" d="M1081.538,478.023a8.966,8.966,0,0,1-4.213-.984,7.342,7.342,0,0,1-2.984-2.852,8.713,8.713,0,0,1-1.1-4.492v-.426a8.625,8.625,0,0,1,1.1-4.475,7.492,7.492,0,0,1,2.984-2.852,8.85,8.85,0,0,1,4.213-1,8.511,8.511,0,0,1,3.967.852,7.311,7.311,0,0,1,2.639,2.262,7.545,7.545,0,0,1,1.3,3.115l-3.278.688a5.427,5.427,0,0,0-.688-1.967,3.822,3.822,0,0,0-1.475-1.41,4.915,4.915,0,0,0-2.393-.525,5.072,5.072,0,0,0-2.541.639,4.59,4.59,0,0,0-1.787,1.836,5.96,5.96,0,0,0-.656,2.9v.3a6.052,6.052,0,0,0,.656,2.918,4.452,4.452,0,0,0,1.787,1.836,5.178,5.178,0,0,0,2.541.623,4.435,4.435,0,0,0,3.246-1.1,5.024,5.024,0,0,0,1.41-2.8l3.278.754a8.74,8.74,0,0,1-1.393,3.082,7.159,7.159,0,0,1-2.639,2.246A8.648,8.648,0,0,1,1081.538,478.023Z" transform="translate(-806.088 -53.043)" fill="#fff"/>
    <path id="Path_303" data-name="Path 303" d="M1608.31,478.023a8.616,8.616,0,0,1-4.295-1.033,7.3,7.3,0,0,1-2.869-2.918,8.963,8.963,0,0,1-1.033-4.377V469.3a9.153,9.153,0,0,1,1.016-4.409,7.221,7.221,0,0,1,2.836-2.918,8.387,8.387,0,0,1,4.213-1.033,7.9,7.9,0,0,1,4.082,1.033,7.211,7.211,0,0,1,2.737,2.869,8.965,8.965,0,0,1,.984,4.295v1.279h-12.425a4.607,4.607,0,0,0,1.426,3.393,4.8,4.8,0,0,0,3.393,1.262,4.222,4.222,0,0,0,2.869-.852,6.028,6.028,0,0,0,1.492-1.967l2.787,1.442a9.757,9.757,0,0,1-1.328,1.934,6.971,6.971,0,0,1-2.278,1.7A8.227,8.227,0,0,1,1608.31,478.023Zm-4.721-10.2h8.95a4.015,4.015,0,0,0-1.311-2.869,4.51,4.51,0,0,0-3.082-1.033,4.572,4.572,0,0,0-3.1,1.033A4.464,4.464,0,0,0,1603.589,467.827Z" transform="translate(-1276.805 -53.043)" fill="#fff"/>
    <path id="Path_304" data-name="Path 304" d="M1283.117,401.573v7.866a7.806,7.806,0,0,0-.81-.505,8.945,8.945,0,0,0-4.3-1.014,9.043,9.043,0,0,0-4.318,1.014,7.444,7.444,0,0,0-2.974,2.862,8.361,8.361,0,0,0-1.07,3.978,8.365,8.365,0,0,0-1.07-3.978,7.445,7.445,0,0,0-2.974-2.862,9.042,9.042,0,0,0-4.318-1.014,8.945,8.945,0,0,0-4.3,1.014,7.487,7.487,0,0,0-2.959,2.862,8.572,8.572,0,0,0-1.08,4.4v.49a8.666,8.666,0,0,0,1.08,4.417,7.331,7.331,0,0,0,2.959,2.86,9.027,9.027,0,0,0,4.3,1,9.125,9.125,0,0,0,4.318-1,7.291,7.291,0,0,0,2.974-2.86,8.451,8.451,0,0,0,1.07-3.993,8.447,8.447,0,0,0,1.07,3.993,7.29,7.29,0,0,0,2.974,2.86,9.125,9.125,0,0,0,4.318,1,9.026,9.026,0,0,0,4.3-1,7.543,7.543,0,0,0,.81-.5v1.058h3.376V401.573Zm-.141,15.016a5.39,5.39,0,0,1-1.389,3.94,5.255,5.255,0,0,1-7.2,0,4.5,4.5,0,0,1-.814-1.152,4.2,4.2,0,0,0-3.646-2.4c-.1,0-.194-.005-.288,0s-.191,0-.289,0a4.2,4.2,0,0,0-3.646,2.4,4.49,4.49,0,0,1-.814,1.152,5.254,5.254,0,0,1-7.2,0,5.391,5.391,0,0,1-1.389-3.94V416.3a5.4,5.4,0,0,1,1.389-3.942,5.284,5.284,0,0,1,7.213,0,4.489,4.489,0,0,1,.817,1.18,4.13,4.13,0,0,0,3.684,2.415c.077,0,.153,0,.23,0s.153,0,.23,0a4.13,4.13,0,0,0,3.684-2.415,4.49,4.49,0,0,1,.817-1.18,5.284,5.284,0,0,1,7.213,0,5.4,5.4,0,0,1,1.389,3.942Z" transform="translate(-966.633)" fill="#fff"/>
    <path id="Path_305" data-name="Path 305" d="M214.328,406.768a10.038,10.038,0,0,0-3.966-3.836,11.99,11.99,0,0,0-5.766-1.359,12.12,12.12,0,0,0-5.787,1.359,9.979,9.979,0,0,0-3.987,3.836,11.21,11.21,0,0,0-1.434,5.332,11.209,11.209,0,0,0-1.434-5.332,9.98,9.98,0,0,0-3.987-3.836,12.12,12.12,0,0,0-5.787-1.359,11.99,11.99,0,0,0-5.766,1.359,10.038,10.038,0,0,0-3.966,3.836,11.489,11.489,0,0,0-1.448,5.9v.657a11.614,11.614,0,0,0,1.448,5.92,9.826,9.826,0,0,0,3.966,3.833,12.1,12.1,0,0,0,5.766,1.338,12.231,12.231,0,0,0,5.787-1.338,9.771,9.771,0,0,0,3.987-3.833,11.325,11.325,0,0,0,1.434-5.352,11.325,11.325,0,0,0,1.434,5.352,9.771,9.771,0,0,0,3.987,3.833,12.231,12.231,0,0,0,5.787,1.338,12.1,12.1,0,0,0,5.766-1.338,9.826,9.826,0,0,0,3.966-3.833,11.614,11.614,0,0,0,1.448-5.92v-.657A11.488,11.488,0,0,0,214.328,406.768Zm-3.07,6.423a7.225,7.225,0,0,1-1.862,5.28,7.043,7.043,0,0,1-9.644,0,6.027,6.027,0,0,1-1.092-1.543,5.635,5.635,0,0,0-4.887-3.22c-.13,0-.26-.007-.387,0s-.257,0-.387,0a5.635,5.635,0,0,0-4.887,3.22,6.027,6.027,0,0,1-1.092,1.543,7.042,7.042,0,0,1-9.644,0,7.225,7.225,0,0,1-1.862-5.28V412.8a7.234,7.234,0,0,1,1.862-5.284,7.082,7.082,0,0,1,9.668,0,6.017,6.017,0,0,1,1.1,1.581,5.536,5.536,0,0,0,4.938,3.237c.1,0,.205,0,.308,0s.205,0,.308,0a5.536,5.536,0,0,0,4.938-3.237,6.017,6.017,0,0,1,1.1-1.581,7.082,7.082,0,0,1,9.668,0,7.234,7.234,0,0,1,1.862,5.284Z" transform="translate(0 0)" fill="url(#linear-gradient)"/>
  </g>
</svg>
